<?xml version="1.0" encoding="UTF-8" standalone="no"?>
<!-- Created with Inkscape (http://www.inkscape.org/) -->

<svg
   width="180"
   height="180"
   viewBox="0 0 180 180"
   version="1.1"
   id="svg5"
   xml:space="preserve"
   inkscape:export-filename="bitmap.svg"
   inkscape:export-xdpi="96"
   inkscape:export-ydpi="96"
   xmlns:inkscape="http://www.inkscape.org/namespaces/inkscape"
   xmlns:sodipodi="http://sodipodi.sourceforge.net/DTD/sodipodi-0.dtd"
   xmlns="http://www.w3.org/2000/svg"
   xmlns:svg="http://www.w3.org/2000/svg"><sodipodi:namedview
     id="namedview7"
     pagecolor="#ffffff"
     bordercolor="#000000"
     borderopacity="0.25"
     inkscape:showpageshadow="2"
     inkscape:pageopacity="0.0"
     inkscape:pagecheckerboard="0"
     inkscape:deskcolor="#d1d1d1"
     inkscape:document-units="px"
     showgrid="false" /><defs
     id="defs2" /><g
     inkscape:groupmode="layer"
     id="layer4"
     inkscape:label="Capa 3"
     style="display:inline;fill:#ffffff"><path
       style="fill:#ffffff"
       d="M 89.95648,17.516925 C 62.751248,49.294371 33.238706,86.149664 4.3082908,113.03109 12.09391,125.89189 19.409638,139.06594 26.71355,152.24788 l 49.543198,10.11313 C 63.970167,147.09335 52.390553,131.11872 41.496615,114.45841 60.977636,96.980158 76.426894,78.261363 89.889411,58.931264 104.5989,80.970691 121.4028,97.983522 138.39458,114.54545 c -11.82055,18.3396 -23.34386,33.40958 -34.84173,48.19978 l 49.42104,-10.55471 22.312,-39.19021 C 146.35998,85.869751 116.408,49.608364 89.95648,17.516925 Z"
       id="path1296"
       sodipodi:nodetypes="ccccccccccc" /><path
       style="fill:#ffffff"
       d="m 45.790977,110.59998 c 14.428812,0.1621 34.223304,6.36743 39.78049,10.8534 -1.671157,2.69154 -10.489757,11.78244 -24.086002,8.71855 -5.158639,-1.31018 -14.722313,-7.59705 -15.694488,-19.57195 z"
       id="path1299"
       sodipodi:nodetypes="cccc" /><path
       style="fill:#ffffff"
       d="m 133.50714,110.94814 c -14.42882,0.1621 -34.22331,6.36743 -39.78049,10.8534 1.67115,2.69154 10.48975,11.78244 24.086,8.71855 5.15864,-1.31018 14.72231,-7.59705 15.69449,-19.57195 z"
       id="path1350"
       sodipodi:nodetypes="cccc" /></g><g
     inkscape:groupmode="layer"
     id="layer2"
     inkscape:label="Capa 2"
     style="display:inline;fill:#000000"
     sodipodi:insensitive="true"><path
       style="fill:#000000"
       d="M 58.970019,157.58704 C 44.901297,141.35065 36.334137,128.04842 26.982592,114.32785 54.735546,89.779734 71.639223,67.401473 89.935571,44.744678 c 19.251659,24.419241 39.629419,48.087744 63.038319,69.735492 -9.71119,14.73362 -20.32702,29.16569 -32.12633,43.20327 l 31.20433,-6.64707 21.55062,-37.84004 C 145.72379,86.524822 121.50271,57.764708 89.966345,19.433469 62.481029,51.865946 35.540197,85.931871 6.3104449,113.13104 l 21.9777561,38.04764 z"
       id="path1237"
       sodipodi:nodetypes="ccccccccccc" /></g></svg>
