<?xml version="1.0" encoding="UTF-8" standalone="no"?>
<!-- Created with Inkscape (http://www.inkscape.org/) -->

<svg
   width="180"
   height="180"
   viewBox="0 0 180 180"
   version="1.1"
   id="svg5"
   xml:space="preserve"
   inkscape:version="1.2.2 (732a01da63, 2022-12-09)"
   sodipodi:docname="portfolio.svg"
   xmlns:inkscape="http://www.inkscape.org/namespaces/inkscape"
   xmlns:sodipodi="http://sodipodi.sourceforge.net/DTD/sodipodi-0.dtd"
   xmlns="http://www.w3.org/2000/svg"
   xmlns:svg="http://www.w3.org/2000/svg"><sodipodi:namedview
     id="namedview7"
     pagecolor="#ffffff"
     bordercolor="#000000"
     borderopacity="0.25"
     inkscape:showpageshadow="2"
     inkscape:pageopacity="0.0"
     inkscape:pagecheckerboard="0"
     inkscape:deskcolor="#d1d1d1"
     inkscape:document-units="px"
     showgrid="false"
     inkscape:zoom="4.0000001"
     inkscape:cx="78.999998"
     inkscape:cy="79.249998"
     inkscape:window-width="1280"
     inkscape:window-height="667"
     inkscape:window-x="-8"
     inkscape:window-y="-8"
     inkscape:window-maximized="1"
     inkscape:current-layer="layer3" /><defs
     id="defs2" /><g
     inkscape:groupmode="layer"
     id="layer3"
     inkscape:label="Capa 2"
     sodipodi:insensitive="true"><path
       style="fill:#000000;stroke:#ffffff;stroke-opacity:1;stroke-width:4;stroke-dasharray:none"
       d="M 166.21429,60.634407 H 43.08932 c -4.334219,0.120369 -7.162753,2.302869 -7.66769,7.667689 L 27.125,139.125 c -0.208573,4.39808 1.207879,7.69927 7.625,7.625 h 124.43741 c 3.16953,-0.2692 4.82051,-2.31004 5.49275,-5.49275 l 8.64939,-73.109834 c 0.30823,-5.097867 -2.25834,-7.413673 -7.11526,-7.513009 z"
       id="path926"
       sodipodi:nodetypes="ccccccccc" /><path
       style="fill:#000000;stroke:#ffffff;stroke-opacity:1;stroke-width:4;stroke-dasharray:none"
       d="m 21.478369,126.83728 7.822368,-65.716737 c 0.400366,-4.670902 2.929287,-7.025434 7.336233,-7.336233 H 158.8125 c 0.30849,-4.837029 -2.12529,-6.99556 -6.88361,-6.883611 H 61.67297 C 59.932655,43.773821 59.209412,40.2813 49.935515,40.124076 H 27.974912 c -3.60623,-0.0336 -6.883536,0.383082 -6.80802,6.80802 z"
       id="path928"
       sodipodi:nodetypes="cccccccccc" /></g></svg>
